<svg xmlns="http://www.w3.org/2000/svg" viewBox="0 0 1200 630" role="img" aria-labelledby="title desc">
  <title id="title">Pixel Archive</title>
  <desc id="desc">Quiet pixel archive social preview with an abstract terminal and archive grid.</desc>
  <rect width="1200" height="630" fill="#f8f5f0"/>
  <g stroke="#2a3c5c" stroke-opacity=".08">
    <path d="M0 70h1200M0 140h1200M0 210h1200M0 280h1200M0 350h1200M0 420h1200M0 490h1200M0 560h1200"/>
    <path d="M70 0v630M140 0v630M210 0v630M280 0v630M350 0v630M420 0v630M490 0v630M560 0v630M630 0v630M700 0v630M770 0v630M840 0v630M910 0v630M980 0v630M1050 0v630M1120 0v630"/>
  </g>
  <rect x="80" y="72" width="1040" height="486" fill="#fffdf7" stroke="#2a3c5c" stroke-opacity=".34"/>
  <rect x="80" y="72" width="1040" height="52" fill="#eef1eb"/>
  <rect x="104" y="94" width="12" height="12" fill="#ed5126"/>
  <rect x="124" y="94" width="12" height="12" fill="#428675"/>
  <rect x="144" y="94" width="12" height="12" fill="#d69a2d"/>
  <g font-family="Consolas, monospace">
    <text x="104" y="184" fill="#428675" font-size="20" font-weight="700" letter-spacing="4">PERSONAL SYSTEM / ARCHIVE ONLINE</text>
    <text x="104" y="282" fill="#2a3c5c" font-size="70" font-weight="700">PIXEL ARCHIVE</text>
    <text x="108" y="334" fill="#6f7a83" font-size="24">projects / notes / save points / experiments</text>
  </g>
  <g transform="translate(104 402)">
    <rect width="420" height="96" fill="#e1e8e3" stroke="#2a3c5c" stroke-opacity=".34"/>
    <rect x="20" y="20" width="56" height="56" fill="#428675"/>
    <rect x="88" y="20" width="184" height="8" fill="#2a3c5c" fill-opacity=".55"/>
    <rect x="88" y="44" width="256" height="8" fill="#2a3c5c" fill-opacity=".22"/>
    <rect x="88" y="68" width="136" height="8" fill="#ed5126" fill-opacity=".7"/>
  </g>
  <g transform="translate(836 396)">
    <rect width="20" height="20" fill="#428675"/>
    <rect x="28" width="20" height="20" fill="#2a3c5c" fill-opacity=".25"/>
    <rect x="56" width="20" height="20" fill="#d69a2d"/>
    <rect y="28" width="20" height="20" fill="#2a3c5c" fill-opacity=".25"/>
    <rect x="28" y="28" width="48" height="48" fill="#7257a5" fill-opacity=".7"/>
    <rect x="84" y="28" width="20" height="20" fill="#ed5126"/>
    <rect y="56" width="20" height="20" fill="#9b856a"/>
    <rect x="84" y="56" width="20" height="20" fill="#428675"/>
  </g>
</svg>
